<?xml version="1.0" encoding="iso-8859-1"?>
<!-- Generator: Adobe Illustrator 18.1.1, SVG Export Plug-In . SVG Version: 6.00 Build 0)  -->
<svg version="1.1" xmlns="http://www.w3.org/2000/svg" xmlns:xlink="http://www.w3.org/1999/xlink" x="0px" y="0px"
	 viewBox="0 0 118.902 84.223" style="enable-background:new 0 0 118.902 84.223;" xml:space="preserve">
<g id="_x35_8-bathtub">
	<path style="fill:#595858;" d="M4.955,49.541c0,9.197,5.019,17.205,12.46,21.481l-6.331,6.329c-1.567,1.572-1.567,4.123,0,5.692
		c0.786,0.786,1.815,1.18,2.85,1.18c1.029,0,2.058-0.394,2.845-1.18l9.06-9.063c1.272,0.203,2.562,0.335,3.885,0.335h59.451
		c1.325,0,2.613-0.132,3.886-0.335l9.061,9.063c0.786,0.786,1.815,1.18,2.85,1.18c1.029,0,2.059-0.394,2.845-1.18
		c1.567-1.57,1.567-4.12,0-5.692l-6.331-6.329c7.442-4.276,12.46-12.284,12.46-21.481v-9.907H4.955V49.541z M113.947,27.248H17.34
		V14.863c0-5.768,4.082-8.052,7.43-8.052c4.446,0,8.049,3.602,8.049,8.052h6.817C39.636,6.653,32.981,0,24.771,0
		C16.566,0,9.905,6.653,9.905,14.863v12.385H4.955C2.214,27.248,0,29.466,0,32.203v2.475h118.902v-2.475
		C118.902,29.466,116.688,27.248,113.947,27.248z"/>
</g>
<g id="Capa_1">
</g>
</svg>
