<?xml version="1.0" encoding="iso-8859-1"?>
<!-- Generator: Adobe Illustrator 18.1.1, SVG Export Plug-In . SVG Version: 6.00 Build 0)  -->
<svg version="1.1" xmlns="http://www.w3.org/2000/svg" xmlns:xlink="http://www.w3.org/1999/xlink" x="0px" y="0px"
	 viewBox="0 0 76.165 118.741" style="enable-background:new 0 0 76.165 118.741;" xml:space="preserve">
<g id="_x36_9-bathrobes">
	<path style="fill:#59595C;" d="M56.176,59.35c-19.219,1.679-33.777,0.73-38.402-0.976c-0.092,0.201-0.554,1.99-0.554,1.99
		c-7.5,11.67-1.975,55.47-1.975,55.47c20.143,6.354,43.425,0.31,43.425,0.31s1.662-17.837,1.662-29.23
		c0-9.911-3.637-25.197-3.637-25.197C56.309,60.828,56.2,60.054,56.176,59.35z M68.403,14.265C63.009,8.301,53.68,8.448,53.68,8.448
		C53.409,1.031,41.303,0,36.614,0c-4.688,0-11.695,1.999-13.207,3.76c-1.229,1.432-2.187,4.023-2.252,4.081L18.62,8.448
		C4.785,10.584,3.813,23.014,3.813,23.014S1.609,44.508,0.661,51.887c-0.948,7.378-0.597,24.999-0.597,24.999
		c4.807,1.202,10.222,0,10.222,0s0.297,1.448,0.442-2.75c0.142-4.198,0.972-10.797,0.972-10.797
		C14.066,51.838,13.38,40.62,13.38,40.62c0.95,2.658,4.034,12.364,4.034,12.364c1.211,1.158,1.402,2.174,1.32,2.898
		c0,0,29.998,2.492,38.583-0.32l0.376-2.066c-0.076-4.988,4.668-12.048,4.668-12.048c-0.597,5.034,1.808,21.664,2.263,24.364
		c0.453,2.7,1.047,11.107,1.047,11.107c4.122,1.516,10.222,0,10.222,0l0.272-5.539C76.165,71.379,73.797,20.228,68.403,14.265z
		 M49.878,11.322c0,0-0.233,6.357-7.429,16.09C38.262,33.076,32.477,43.99,29.6,51.457c-0.533,1.382-0.95,4.093-2.062,4.093h-0.004
		c-0.905,0-0.783-1.893-0.785-2.826c-0.02-11.674,3.556-21.761,5.354-25.618l4.648-8.714c0.814-1.38,7.044-10.629,4.601-11.536
		c-4.961-1.841-9.815,0.025-9.815,0.025c-1.146,0.515-0.487,3.956,1.713,6.334c1.101,1.189,0.147,2.926,0.147,2.926l-2.379,4.466
		c0,0-0.996,1.924-2.355,0.098c-3.729-5.012-4.687-10.37-4.579-9.889c0,0-1.646-6.205,6.67-8.273c0,0,13.257-2.825,17.941,3.127
		C48.695,5.671,50.342,7.287,49.878,11.322z"/>
</g>
<g id="Capa_1">
</g>
</svg>
