<?xml version="1.0" encoding="iso-8859-1"?>
<!-- Generator: Adobe Illustrator 18.1.1, SVG Export Plug-In . SVG Version: 6.00 Build 0)  -->
<svg version="1.1" xmlns="http://www.w3.org/2000/svg" xmlns:xlink="http://www.w3.org/1999/xlink" x="0px" y="0px"
	 viewBox="0 0 92.074 118.191" style="enable-background:new 0 0 92.074 118.191;" xml:space="preserve">
<g id="_x32_9-beach">
	<path style="fill:#595858;" d="M41.783,94.596c-10.564,0-18.73,2.202-22.333,3.491c-9.473,3.235-16.487,8.457-19.133,14.62
		c-1.117,2.596,0.875,5.484,3.708,5.484h75.521c2.827,0,4.83-2.888,3.713-5.484C78.791,102.319,61.917,94.596,41.783,94.596z
		 M91.529,34.724c-0.241-1.072-0.594-2.178-1.031-3.245c-0.472-1.182-1.036-2.485-1.866-3.848c-0.301-0.513-0.744-1.248-1.267-2.003
		c-0.544-0.724-1.067-1.394-1.631-2.068c-0.513-0.664-1.157-1.278-1.776-1.871l-0.196-0.187c-0.337-0.327-0.694-0.659-1.061-0.986
		c-0.036-0.03-0.065-0.055-0.106-0.086c-0.382-0.307-0.78-0.619-1.193-0.921l-0.282-0.211c-0.307-0.227-0.619-0.458-0.941-0.679
		c-0.413-0.272-0.83-0.518-1.252-0.765l-0.181-0.106l-1.368-0.76c-0.05-0.025-0.101-0.05-0.151-0.075
		c-0.372-0.176-0.75-0.337-1.137-0.503l-0.378-0.161c-1.907-0.835-4.186-1.429-6.746-1.776c-0.201-0.277-0.438-0.529-0.75-0.709
		c-0.529-0.307-1.344-0.765-2.315-1.147c-0.478-0.201-1.021-0.413-1.6-0.604c-0.649-0.191-1.237-0.347-1.851-0.493
		c-0.599-0.161-1.273-0.241-1.872-0.312l-0.181-0.02c-0.337-0.045-0.689-0.081-1.042-0.111c-0.045,0-0.086-0.005-0.131-0.005
		c-0.357-0.01-0.724-0.015-1.092-0.01h-0.242c-0.281,0-0.558,0.005-0.845,0.015c-0.362,0.02-0.724,0.065-1.082,0.106l-0.141,0.02
		l-0.498,0.065c-0.02-0.05-0.04-0.111-0.06-0.161l-0.121-0.241c-0.13-0.272-0.266-0.544-0.402-0.805
		c-0.03-0.05-0.055-0.095-0.091-0.146l-0.563-0.906L53.983,8.85c-0.196-0.302-0.393-0.604-0.599-0.88
		c-0.186-0.242-0.367-0.463-0.543-0.68l-0.156-0.191c-0.231-0.277-0.468-0.553-0.709-0.825c-0.025-0.03-0.055-0.065-0.091-0.096
		c-0.251-0.251-0.503-0.498-0.755-0.735L51,5.318c-0.438-0.407-0.936-0.875-1.509-1.283c-0.438-0.332-0.936-0.684-1.419-1.011
		c-0.599-0.367-1.112-0.649-1.615-0.906c-0.991-0.543-2.003-0.915-2.853-1.207c-0.785-0.277-1.61-0.493-2.445-0.639
		C39.856,0.026,38.975,0.005,38.88,0c-0.302-0.005-0.599,0.045-0.87,0.141c-0.438,0.156-0.825,0.423-1.122,0.79
		c-0.272,0.337-0.422,0.734-0.493,1.152c-0.72-0.282-1.434-0.533-2.123-0.715l-0.382-0.111c-0.398-0.11-0.8-0.221-1.193-0.317
		c-0.055-0.015-0.115-0.025-0.171-0.035l-0.393-0.065l-1.107-0.191L30.78,0.614c-0.483-0.075-0.966-0.146-1.434-0.186
		c-0.412-0.03-0.8-0.045-1.182-0.06l-0.357-0.015c-0.503-0.02-1.006-0.025-1.504-0.03c-0.045,0-0.091,0.005-0.091,0.005
		c-0.533,0.025-1.021,0.06-1.494,0.106l-0.262,0.02c-0.855,0.08-1.741,0.156-2.636,0.367c-0.422,0.086-0.915,0.191-1.388,0.302
		c-0.342,0.08-0.68,0.166-1.011,0.251c-0.498,0.146-0.891,0.277-1.273,0.407c-0.377,0.131-0.744,0.271-1.102,0.408
		c-1.454,0.523-2.707,1.187-3.839,1.826c-0.991,0.548-1.952,1.192-2.847,1.901C8.92,7.029,8.125,7.879,8.034,7.974
		C7.511,8.543,7.28,9.318,7.405,10.078c0.126,0.765,0.594,1.423,1.273,1.791c0.04,0.025,1.087,0.593,2.727,1.248l1.575,0.614
		l1.122,0.433l0.322,0.121l0.136,0.045c0.529,0.196,1.107,0.207,1.646,0.03l0.201-0.065c0.352-0.111,0.88-0.266,1.509-0.413
		l0.312-0.07c0.136-0.036,0.272-0.065,0.413-0.091c-0.015,0.111-0.02,0.226-0.015,0.342c0.025,1.026,0.639,1.947,1.605,2.304
		l0.251,0.09c0.186,0.071,0.372,0.141,0.558,0.207c0.378,0.111,0.659,0.231,0.936,0.342c0.277,0.115,0.558,0.226,0.84,0.327
		c0.236,0.095,0.533,0.201,0.83,0.301h0.005c0.286,0.131,0.573,0.257,0.86,0.372l0.216,0.086c0.141,0.06,0.277,0.111,0.418,0.166
		c-1.575,0.01-3.235,0.196-5.056,0.624c-0.639,0.151-1.273,0.322-1.897,0.508c-0.04,0.015-0.076,0.025-0.116,0.04
		c-2.54,0.895-4.724,1.992-6.485,3.26l-0.327,0.226c-0.342,0.242-0.68,0.478-1.002,0.725c-0.045,0.035-0.09,0.07-0.131,0.11
		l-0.709,0.619l-0.432,0.382l-0.191,0.166c-0.363,0.327-0.725,0.659-1.052,0.996c-0.281,0.297-0.538,0.588-0.79,0.88l-0.241,0.266
		c-0.332,0.378-0.654,0.765-0.971,1.147c-0.025,0.035-0.056,0.071-0.08,0.106c-0.287,0.397-0.569,0.795-0.836,1.192l-0.146,0.212
		c-0.483,0.714-0.981,1.449-1.388,2.279c-0.372,0.705-0.744,1.469-1.082,2.209c-0.392,0.926-0.669,1.741-0.87,2.355
		c-0.513,1.459-0.79,2.853-1.011,4.13C0.136,41.803,0.02,42.96,0.01,44.097c-0.05,1.821,0.106,2.978,0.126,3.104
		c0.106,0.765,0.564,1.434,1.233,1.816c0.634,0.363,1.388,0.433,2.073,0.192c0.04-0.015,0.08-0.03,0.116-0.045
		c0.05-0.02,1.147-0.468,2.696-1.328l0.654-0.372l1.856-1.052l0.292-0.176l0.126-0.075c0.483-0.287,0.86-0.729,1.061-1.258
		l0.076-0.201c0.186-0.458,0.443-1.051,0.775-1.711c0.065-0.126,0.131-0.251,0.191-0.377c0.08,0.08,0.166,0.156,0.257,0.226
		c0.684,0.529,1.58,0.689,2.369,0.413c0.151-0.05,0.292-0.121,0.433-0.201l0.227-0.135c0.176-0.101,0.347-0.201,0.518-0.307
		c0.322-0.216,0.594-0.362,0.855-0.503c0.266-0.146,0.528-0.292,0.785-0.448c0.221-0.126,0.488-0.286,0.76-0.453v-0.005
		c0.282-0.141,0.558-0.282,0.83-0.433l0.206-0.111c0.236-0.126,0.478-0.257,0.705-0.397c0.015-0.01,0.1-0.041,0.181-0.081
		c0.171-0.075,0.342-0.156,0.508-0.241c0.342-0.181,0.724-0.488,0.951-0.8l0.116-0.156c0.121-0.171,0.242-0.342,0.367-0.508
		c0.553,0.221,1.182,0.246,1.761,0.04l0.035-0.01l0.382-0.141l0.689-0.257c0.277-0.076,0.549-0.156,0.82-0.237
		c0.422-0.126,0.84-0.251,1.268-0.352c0.186-0.045,0.372-0.08,0.558-0.111c0.895-0.161,1.71-0.302,2.551-0.372
		c0.211-0.02,0.413-0.065,0.614-0.136c0.207-0.071,0.403-0.171,0.584-0.292c0.362,0.206,0.775,0.322,1.197,0.317
		c0.407,0,0.815-0.005,1.233,0.015c1.253,0.03,2.47,0.141,3.396,0.237c0.825,0.076,1.6,0.176,2.339,0.277l-0.684,0.936l-0.488,0.674
		c-0.161,0.232-0.297,0.413-0.437,0.599c-0.312,0.418-0.659,0.891-0.996,1.444l-0.115,0.186l-1.198,1.912
		c-0.322,0.534-0.654,1.057-0.986,1.585c-0.669,1.061-1.363,2.158-2.042,3.361l-1.243,2.35l-1.761,3.34
		c-0.694,1.439-1.313,2.863-1.911,4.236c-0.307,0.714-0.624,1.434-0.946,2.153c-0.629,1.56-1.167,3.084-1.686,4.558
		c-0.262,0.755-0.528,1.509-0.805,2.264c-0.015,0.041-0.03,0.086-0.045,0.131c-0.232,0.77-0.448,1.55-0.664,2.33l-0.322,1.147
		c-0.116,0.443-0.222,0.815-0.332,1.193c-0.226,0.79-0.463,1.605-0.619,2.485c-0.116,0.558-0.242,1.162-0.372,1.761
		c-0.357,1.695-0.729,3.447-0.926,5.212l-0.151,1.067c-0.11,0.759-0.216,1.504-0.292,2.249l-0.161,2.007L19.5,87.867
		c-0.096,0.961-0.111,1.912-0.126,2.832l-0.005,0.347c-0.005,0.358-0.01,0.68-0.02,1.002c-0.015,0.679-0.025,1.338,0,1.987
		l0.001,0.044c2.995-1.013,7.405-2.209,13.274-2.93c-0.005-0.095-0.008-0.188-0.013-0.284l-0.015-0.337
		c-0.04-0.735-0.071-1.429-0.045-2.118l0.035-2.933c0.02-0.523,0.071-1.117,0.116-1.721c0.03-0.377,0.06-0.76,0.086-1.142
		c0.06-1.388,0.262-2.772,0.473-4.241c0.091-0.619,0.181-1.243,0.262-1.872c0.065-0.604,0.201-1.197,0.337-1.826
		c0.091-0.408,0.186-0.82,0.262-1.232l0.236-1.132c0.136-0.639,0.266-1.272,0.413-1.912c0.221-0.759,0.437-1.524,0.654-2.289
		c0.378-1.353,0.735-2.626,1.147-3.879c0.257-0.674,0.528-1.434,0.799-2.188c0.448-1.253,0.891-2.486,1.374-3.678l0.257-0.573
		l2.163-4.835c0.478-0.996,1.031-2.008,1.565-2.989c0.312-0.568,0.614-1.122,0.895-1.66l0.654-1.218l0.473-0.88
		c0.206-0.408,0.422-0.735,0.634-1.051c0.151-0.237,0.302-0.468,0.438-0.699l0.151-0.237l1.716-2.707l0.352-0.553l0.579,0.387
		l0.549,0.372c0.659,0.453,1.358,0.931,2.052,1.454c0.775,0.568,1.756,1.303,2.667,2.083c0.357,0.297,0.659,0.573,0.961,0.845
		c0.317,0.297,0.7,0.493,1.112,0.589c0.101,0.408,0.302,0.79,0.599,1.101c0.573,0.614,1.081,1.268,1.6,1.937
		c0.402,0.493,0.735,1.042,1.086,1.615c0.146,0.242,0.297,0.483,0.448,0.724l0.352,0.669l0.181,0.342
		c0.292,0.558,0.779,0.976,1.348,1.182c-0.02,0.231-0.04,0.428-0.065,0.624l-0.02,0.191c-0.045,0.393,0.005,0.79,0.146,1.162
		c0.091,0.246,0.166,0.417,0.242,0.594c0.035,0.08,0.075,0.161,0.1,0.247c0.06,0.186,0.146,0.443,0.236,0.699l0.086,0.236
		c0.091,0.277,0.201,0.569,0.317,0.855l0.005,0.01c0.086,0.307,0.176,0.614,0.282,0.915c0.06,0.216,0.156,0.498,0.257,0.785
		c0.1,0.286,0.206,0.568,0.277,0.865c0.08,0.277,0.136,0.468,0.196,0.654l0.08,0.257c0.307,0.981,1.177,1.68,2.204,1.756
		c0.115,0.01,0.236,0.01,0.352,0.005c-0.035,0.115-0.065,0.231-0.095,0.342c-0.201,0.744-0.413,1.353-0.594,1.856l-0.045,0.111
		c-0.201,0.529-0.241,1.157-0.075,1.695l0.045,0.136l0.095,0.322l0.906,2.727c0.584,1.695,1.097,2.767,1.117,2.812
		c0.332,0.694,0.971,1.197,1.726,1.363c0.458,0.096,0.926,0.065,1.359-0.086c0.281-0.095,0.543-0.246,0.779-0.437
		c0.096-0.086,0.986-0.84,2.194-2.254c0.724-0.825,1.419-1.756,2.028-2.737c0.684-1.077,1.414-2.294,2.027-3.763
		c0.242-0.549,0.578-1.338,0.886-2.199c0.271-0.865,0.503-1.685,0.719-2.536c0.236-0.81,0.358-1.685,0.478-2.54l0.035-0.262
		c0.065-0.468,0.126-0.951,0.176-1.439c0.005-0.045,0.01-0.091,0.01-0.136c0.02-0.493,0.045-0.996,0.045-1.504l0.005-0.352
		c0.005-0.387,0.01-0.775,0-1.162c-0.015-0.493-0.065-0.976-0.115-1.464l-0.02-0.207l-0.181-1.554
		c-0.005-0.056-0.015-0.116-0.025-0.171c-0.075-0.398-0.166-0.8-0.261-1.208l-0.091-0.402c-0.453-2.108-1.338-4.382-2.626-6.752
		c-1.55-2.545-3.099-4.457-4.799-5.941c-0.966-0.865-2.002-1.66-3.069-2.345l0.02-0.01c0.201-0.071,0.392-0.166,0.568-0.287
		c0.176,0.151,0.322,0.287,0.468,0.418l0.146,0.131c0.292,0.266,0.639,0.457,1.016,0.558c0.262,0.075,0.448,0.115,0.629,0.156
		c0.091,0.02,0.176,0.036,0.262,0.061c0.186,0.065,0.443,0.146,0.704,0.221l0.242,0.071c0.282,0.086,0.584,0.166,0.886,0.242
		l0.005,0.005c0.297,0.106,0.599,0.211,0.911,0.307c0.206,0.076,0.493,0.161,0.785,0.247c0.292,0.086,0.584,0.171,0.86,0.282
		c0.272,0.1,0.458,0.166,0.649,0.226l0.251,0.08c0.544,0.187,1.117,0.176,1.63-0.005c0.413-0.146,0.79-0.398,1.087-0.75
		c0.075-0.09,0.141-0.186,0.206-0.281c0.076,0.09,0.151,0.186,0.227,0.277c0.483,0.599,0.855,1.127,1.157,1.57l0.07,0.11
		c0.307,0.473,0.785,0.86,1.323,1.042l0.135,0.05l0.317,0.106l0.654,0.206l2.088,0.654c1.71,0.523,2.883,0.734,2.933,0.744
		c0.428,0.075,0.865,0.035,1.268-0.1c0.307-0.111,0.599-0.277,0.845-0.503c0.573-0.513,0.88-1.268,0.825-2.037
		C92.057,37.698,91.967,36.53,91.529,34.724z"/>
</g>
<g id="Capa_1">
</g>
</svg>
