<?xml version="1.0" encoding="iso-8859-1"?>
<!-- Generator: Adobe Illustrator 18.1.1, SVG Export Plug-In . SVG Version: 6.00 Build 0)  -->
<svg version="1.1" xmlns="http://www.w3.org/2000/svg" xmlns:xlink="http://www.w3.org/1999/xlink" x="0px" y="0px"
	 viewBox="0 0 109.648 118.516" style="enable-background:new 0 0 109.648 118.516;" xml:space="preserve">
<g id="_x31_5-beach-pool-facilities">
	<path style="fill:#595858;" d="M84.25,16.133c-1.019-0.839-2.051-1.659-3.114-2.45l0,0l-0.007,0.001l-0.001-0.004
		c-1.07-0.786-2.156-1.53-3.255-2.252C54.135-4.104,24.056-3.466,1.303,11.289c-1.618,1.056-1.768,3.424-0.232,4.612
		c0.033,0.025,0.066,0.049,0.099,0.074c0.232,0.164,0.463,0.328,0.688,0.497c9.464,6.978,14.594,17.636,14.9,28.543
		c0.007,0.335,0.028,0.671,0.027,1.01c0.004,0.896,0.438,1.674,1.103,2.168l0.024,0.015c0.539,0.394,1.22,0.601,1.941,0.54
		c0.11-0.009,0.227-0.013,0.329-0.02c8.369-0.653,16.931,1.139,24.611,5.488L27.914,77.108l-24.425,33.13
		c-1.701,2.308-1.209,5.56,1.098,7.261l0,0c2.308,1.706,5.554,1.215,7.262-1.098l21.344-28.949l19.96-27.071
		c6.424,6.047,10.672,13.7,12.521,21.881c0.016,0.108,0.049,0.217,0.078,0.323c0.152,0.711,0.559,1.305,1.099,1.707l0,0
		c0.671,0.492,1.55,0.684,2.409,0.417c0.323-0.1,0.645-0.178,0.97-0.268c10.51-2.932,22.206-1.185,31.671,5.792
		c0.232,0.167,0.457,0.341,0.683,0.513c0.017,0.015,0.034,0.028,0.051,0.043c1.561,1.151,3.825,0.414,4.352-1.462
		C114.412,63.209,106.135,34.229,84.25,16.133z M80.695,26.326c1.5,18.015-3.668,33.795-8.459,44.105
		c-3.715-8.467-9.586-15.881-17.14-21.444c-7.547-5.568-16.37-8.991-25.57-10.034c8.429-7.622,21.972-17.226,39.654-21.117
		c3.198-0.705,6.528-1.219,9.996-1.5C79.925,19.727,80.423,23.062,80.695,26.326z"/>
</g>
<g id="Capa_1">
</g>
</svg>
