<?xml version="1.0" encoding="iso-8859-1"?>
<!-- Generator: Adobe Illustrator 18.1.1, SVG Export Plug-In . SVG Version: 6.00 Build 0)  -->
<svg version="1.1" xmlns="http://www.w3.org/2000/svg" xmlns:xlink="http://www.w3.org/1999/xlink" x="0px" y="0px"
	 viewBox="0 0 102.781 118.664" style="enable-background:new 0 0 102.781 118.664;" xml:space="preserve">
<g id="_x37_-business-center">
	<path style="fill:#595858;" d="M42.371,55.488l9.726,7.429l8.602-7.429C55.225,53.366,42.371,55.488,42.371,55.488z M51.391,49.447
		c13.657,0,24.728-11.064,24.728-24.721C76.119,11.068,65.048,0,51.391,0c-13.657,0-24.72,11.068-24.72,24.727
		C26.671,38.383,37.734,49.447,51.391,49.447z M67.967,56.949c-1.182-0.301-9.706,7.372-10.848,9.203c0,0,3.016,3.494,3.023,3.557
		l3.028,30.26c0.011,0.115-10.317,8.324-10.317,8.324c-0.08,0.077-0.194,0.128-0.299,0.128c-0.113,0-0.225-0.051-0.299-0.128
		l-10.091-7.294c-0.085-0.085,3.206-31.219,3.249-31.271l2.768-3.594c-1.131-1.818-12.797-9.344-14.104-8.994
		C14.223,62.465,0,77.137,0,98.381c0,27.043,102.781,27.043,102.781,0C102.781,76.875,88.21,62.105,67.967,56.949z M50.227,73.096
		l-2.045,24.786l4.079,5.36l4.858-4.904l-2.812-25.509l-1.656-4.897L50.227,73.096z"/>
</g>
<g id="Capa_1">
</g>
</svg>
