<?xml version="1.0" encoding="iso-8859-1"?>
<!-- Generator: Adobe Illustrator 18.1.1, SVG Export Plug-In . SVG Version: 6.00 Build 0)  -->
<svg version="1.1" xmlns="http://www.w3.org/2000/svg" xmlns:xlink="http://www.w3.org/1999/xlink" x="0px" y="0px"
	 viewBox="0 0 118.807 108.73" style="enable-background:new 0 0 118.807 108.73;" xml:space="preserve">
<g id="_x35_2-children-club">
	<path style="fill:#595858;" d="M50.901,57.867H3.004C1.352,57.867,0,59.219,0,60.871v44.279c0,1.652,1.352,3.004,3.004,3.004
		h47.896c1.652,0,3.004-1.352,3.004-3.004V60.871C53.905,59.219,52.553,57.867,50.901,57.867z M35.582,96.557h-1.075
		c-0.872,0-1.644-0.564-1.909-1.395l-1.557-4.877c-0.265-0.831-1.037-1.395-1.909-1.395h-5.638c-0.883,0-1.661,0.577-1.918,1.422
		l-1.464,4.823c-0.256,0.845-1.035,1.422-1.918,1.422h-0.865c-1.358,0-2.323-1.323-1.909-2.616l7.386-23.045
		c0.266-0.83,1.037-1.393,1.909-1.393h3.382c0.868,0,1.638,0.559,1.906,1.385l7.486,23.045
		C37.909,95.228,36.943,96.557,35.582,96.557z M27.624,78.494c-0.52-1.644-0.961-3.491-1.363-5.056h-0.082
		c-0.402,1.565-0.801,3.451-1.284,5.056l-1.27,4.06c-0.404,1.291,0.56,2.603,1.913,2.603h1.47c1.357,0,2.322-1.321,1.909-2.614
		L27.624,78.494z M53.783,18.094c-0.314-0.047-0.599-0.086-0.859-0.118c-1.078-0.132-2.058,0.619-2.22,1.693l-0.531,3.526
		c-0.165,1.095,0.589,2.116,1.684,2.28l0.519,0.078c3.374,0.508,5.516-0.793,5.857-3.058C58.609,19.997,56.879,18.56,53.783,18.094z
		 M51.758,29.112l-0.439-0.066c-1.095-0.165-2.115,0.589-2.28,1.684l-0.735,4.883c-0.162,1.076,0.561,2.093,1.634,2.272
		c0.205,0.034,0.421,0.068,0.649,0.103c3.135,0.472,6.09-0.303,6.586-3.597C57.64,31.296,55.132,29.62,51.758,29.112z
		 M118.755,96.276l-8.22-43.509c-0.307-1.624-1.886-2.701-3.51-2.394l-31.048,5.866c0.749-0.45,1.306-1.207,1.44-2.134l6.328-43.824
		c0.236-1.635-0.909-3.167-2.544-3.403L33.796,0.031c-1.635-0.236-3.167,0.909-3.403,2.544l-6.328,43.824
		c-0.236,1.635,0.909,3.167,2.544,3.403l47.287,6.829l-13.935,2.633c-1.624,0.307-2.701,1.886-2.394,3.51l8.22,43.509
		c0.307,1.624,1.886,2.701,3.51,2.394l47.064-8.892C117.984,99.479,119.062,97.899,118.755,96.276z M63.238,22.683
		c-0.37,2.459-2.258,4.489-5.315,5.126l-0.012,0.078c2.711,1.138,4.955,3.75,4.4,7.441c-0.359,2.382-1.67,4.091-3.409,5.129
		c-2.157,1.381-5.418,1.743-10.301,1.008c-1.638-0.246-3.03-0.53-4.141-0.792c-1.019-0.241-1.684-1.216-1.528-2.251l3.435-22.826
		c0.152-1.013,1.042-1.741,2.066-1.705c1.548,0.055,3.49,0.231,5.377,0.515c3.613,0.543,5.771,1.315,7.406,2.859
		C62.73,18.505,63.579,20.421,63.238,22.683z M99.228,90.833c-1.227,0.599-2.914,1.206-4.915,1.636
		c-8.396,1.807-14.631-2.355-16.361-10.4c-1.874-8.71,3.036-15.268,11.12-17.008c1.861-0.401,3.461-0.506,4.688-0.464
		c1.111,0.038,1.961,1.007,1.897,2.117l-0.006,0.101c-0.062,1.081-0.967,1.925-2.049,1.885c-1.018-0.037-2.18,0.044-3.471,0.321
		c-5.377,1.157-8.536,5.366-7.168,11.725c1.249,5.806,5.467,8.799,11.273,7.55c1.143-0.246,2.283-0.631,3.258-1.078
		c1.025-0.47,2.232-0.03,2.688,1.002C100.616,89.207,100.197,90.36,99.228,90.833z"/>
</g>
<g id="Capa_1">
</g>
</svg>
