<?xml version="1.0" encoding="iso-8859-1"?>
<!-- Generator: Adobe Illustrator 18.1.1, SVG Export Plug-In . SVG Version: 6.00 Build 0)  -->
<svg version="1.1" xmlns="http://www.w3.org/2000/svg" xmlns:xlink="http://www.w3.org/1999/xlink" x="0px" y="0px"
	 viewBox="0 0 117.551 108.693" style="enable-background:new 0 0 117.551 108.693;" xml:space="preserve">
<g id="_x36_1-coffe-maker">
	<path style="fill:#595858;" d="M88.131,11.944l-1.421-0.958h-8.883c1.201-0.601,2.04-1.828,2.04-3.261V3.661
		C79.868,1.64,78.227,0,76.2,0H11.343C9.321,0,7.681,1.64,7.681,3.661v0.507c0,3.818,2.985,6.949,6.741,7.193
		c-2.128,0.801-3.65,2.841-3.65,5.251c0,3.105,2.517,5.621,5.621,5.621h66.848c14.473,10.297,23.06,26.053,23.06,42.466
		c0,3.105,2.517,5.621,5.629,5.621c3.104,0,5.62-2.516,5.62-5.621C117.551,44.018,106.553,24.3,88.131,11.944z M75.874,27.699H15.7
		c-1.071,0-2.085,0.469-2.786,1.283C4.589,38.729,0,51.592,0,65.188c0,17.015,7.343,32.977,19.637,42.717
		c0.651,0.513,1.452,0.789,2.272,0.789h47.756c0.826,0,1.628-0.275,2.279-0.789c12.288-9.74,19.631-25.702,19.631-42.717
		c0-13.596-4.588-26.459-12.914-36.206C77.965,28.168,76.944,27.699,75.874,27.699z M9.245,56.807
		c1.277-7.624,4.269-14.691,8.782-20.563h55.524c4.507,5.872,7.505,12.939,8.776,20.563H9.245z"/>
</g>
<g id="Capa_1">
</g>
</svg>
