<?xml version="1.0" encoding="iso-8859-1"?>
<!-- Generator: Adobe Illustrator 18.1.1, SVG Export Plug-In . SVG Version: 6.00 Build 0)  -->
<svg version="1.1" xmlns="http://www.w3.org/2000/svg" xmlns:xlink="http://www.w3.org/1999/xlink" x="0px" y="0px"
	 viewBox="0 0 119.695 104.324" style="enable-background:new 0 0 119.695 104.324;" xml:space="preserve">
<g id="_x37_3-deep-soaking-bathtub">
	<path style="fill:#595858;" d="M89.706,29.306c6.913-0.016,12.328-5.392,12.359-12.267c0.03-6.844-5.339-12.335-12.195-12.47
		C83.124,4.435,77.375,9.945,77.262,16.65C77.145,23.69,82.682,29.322,89.706,29.306z M101.733,51.323
		c1.099-6.925-0.353-13.371-6.198-16.429c-4.607-2.411-9.458-2.129-13.623,1.219c-4.915,3.951-5.377,9.287-4.181,15.21H101.733z
		 M47.048,30.876c-2.722,6.97-0.245,12.316,6.636,15.797c-4.663-9.082-1.222-16.018,4.563-22.72
		c2.323-2.691,4.036-6.153,5.196-9.547C65.426,8.6,63.852,3.491,59.102,0c3.34,8.565,0.085,14.361-4.96,19.963
		C51.262,23.162,48.597,26.905,47.048,30.876z M119.675,49.373c-0.001-0.993-0.13-1.986-0.212-3.161h-8.804v5.093
		c0,12.818-0.096,25.637,0.062,38.454c0.043,3.546-1.069,5.152-4.736,5.145c-30.792-0.052-61.585-0.047-92.377-0.004
		c-3.429,0.004-4.55-1.458-4.509-4.848C9.252,77.531,9.16,65.007,9.16,52.483v-6.207H0.146v5.022
		c0,12.523,0.401,25.062-0.122,37.564c-0.459,10.976,5.648,15.524,15.518,15.461c29.613-0.192,59.228-0.061,88.841-0.089
		c1.753-0.003,3.527-0.169,5.255-0.471c6.281-1.096,10.012-5.508,10.033-11.96C119.715,77.661,119.689,63.517,119.675,49.373z
		 M36.931,47.104c-5.85-10.124-5.058-16.281,2.992-24.953c2.19-2.358,4.466-4.808,5.926-7.619c1.071-2.063,0.874-4.785,1.236-7.179
		c-4.083,4.582-7.683,8.469-11.1,12.509c-2.633,3.113-5.704,6.103-7.403,9.705C25.004,37.153,29.627,46.234,36.931,47.104z
		 M106.174,54.866H13.798V90.26h92.377V54.866z"/>
</g>
<g id="Capa_1">
</g>
</svg>
