<?xml version="1.0" encoding="iso-8859-1"?>
<!-- Generator: Adobe Illustrator 18.1.1, SVG Export Plug-In . SVG Version: 6.00 Build 0)  -->
<svg version="1.1" xmlns="http://www.w3.org/2000/svg" xmlns:xlink="http://www.w3.org/1999/xlink" x="0px" y="0px"
	 viewBox="0 0 119.188 108.977" style="enable-background:new 0 0 119.188 108.977;" xml:space="preserve">
<g id="_x35_-fitness-center">
	<path style="fill:#5A5A5D;" d="M58.86,21.186c-5.38,0.716-9.149,5.615-8.429,10.948c0.72,5.328,5.667,9.074,11.042,8.359
		c5.375-0.711,9.154-5.615,8.43-10.943C69.186,24.217,64.244,20.471,58.86,21.186z M112.398,0.939l-5.248-0.838
		c-4.382-0.696-8.561,2.287-9.272,6.637l-0.969,5.977c-32.989-7.521-64.744-2.744-74.769-0.861l-0.828-5.116
		c-0.71-4.349-4.886-7.333-9.272-6.637L6.791,0.939c-4.382,0.706-7.394,4.838-6.688,9.187l2.438,15
		c0.706,4.354,4.881,7.338,9.263,6.632l5.252-0.828c4.391-0.711,7.399-4.843,6.693-9.192l-0.508-3.106
		c1.652-0.306,4.02-0.711,6.938-1.125c0.626,8.387,3.309,19.904,12.016,36.584l8.712,15.038
		c-0.536,0.635-14.308,21.208-16.172,36.043c-0.236,1.798,1.158,3.436,3.13,3.751c0.08,0.01,0.165,0.024,0.24,0.033
		c2.113,0.207,4.01-1.139,4.246-3.022c1.379-10.948,14.007-25.312,17.97-29.605c4.283,4.664,16.322,18.601,17.664,29.261
		c0.155,1.238,1.036,2.231,2.212,2.716c0.748,0.49,1.69,0.744,2.687,0.65c0.08-0.01,0.16-0.024,0.235-0.033
		c1.977-0.315,3.37-1.953,3.139-3.751c-1.864-14.835-15.64-35.408-16.176-36.043l8.721-15.038
		c8.392-16.082,11.169-27.35,11.922-35.658c1.69,0.33,3.379,0.664,5.078,1.059l-0.362,2.245c-0.716,4.349,2.306,8.481,6.693,9.192
		l5.243,0.828c4.387,0.706,8.566-2.278,9.268-6.632l2.443-15C119.792,5.777,116.78,1.645,112.398,0.939z M79.55,34.69
		c-2.998,4.513-7.069,8.255-12.369,9.352l-0.348,0.094c-0.009,0.01-0.094,0.038-0.216,0.076l-4.754,0.63
		c-0.442,0.066-0.885,0.104-1.322,0.127c0,0-0.028,0.005-0.042,0.005l-0.052-0.005c-0.438-0.024-0.889-0.061-1.323-0.127
		c-0.273-0.038-0.532-0.028-0.79-0.009c-1.121-0.108-2.203-0.254-3.125-0.405c-0.649-0.16-1.045-0.282-1.054-0.292l-0.344-0.094
		c-12.223-2.546-15.659-18.944-16.619-26.78c14.304-2.071,27.967-2.005,38.924-1.266c2.847,0.221,5.695,0.522,8.509,0.894
		C84.247,20.848,83.061,28.458,79.55,34.69z"/>
</g>
<g id="Capa_1">
</g>
</svg>
