<?xml version="1.0" encoding="iso-8859-1"?>
<!-- Generator: Adobe Illustrator 18.1.1, SVG Export Plug-In . SVG Version: 6.00 Build 0)  -->
<svg version="1.1" xmlns="http://www.w3.org/2000/svg" xmlns:xlink="http://www.w3.org/1999/xlink" x="0px" y="0px"
	 viewBox="0 0 118.719 89.146" style="enable-background:new 0 0 118.719 89.146;" xml:space="preserve">
<g id="_x34_5-garden">
	<path style="fill:#595858;" d="M89.917,76.764c2.215-21.234,9.182-40.308,19.344-55.037c-16.834,8.456-30.19,23.546-37.175,42.134
		C72.439,39.602,78.154,17.403,87.712,0C73.399,9.047,62.113,23.287,55.573,40.395c0.792,2.932,1.944,7.748,2.996,14.265
		c0.17,1.05-0.545,2.041-1.597,2.211c-0.104,0.017-0.208,0.026-0.31,0.026c-0.929,0-1.749-0.674-1.902-1.622
		c-4.236-26.235-27.583-33.883-27.583-33.883c3.8,12.69,6.032,26.711,6.321,41.479C27.648,49.085,14.366,37.833,1.925,31.047
		c5.077,9.312,9.36,20.577,12.478,33.475C7.038,54.363,0,51.762,0,51.762s15.186,14.273,16.851,37.384h85.016
		c1.289-16.909,8.907-25.612,16.851-37.831C106.403,56.587,96.27,65.58,89.917,76.764z"/>
</g>
<g id="Capa_1">
</g>
</svg>
