<?xml version="1.0" encoding="iso-8859-1"?>
<!-- Generator: Adobe Illustrator 18.1.1, SVG Export Plug-In . SVG Version: 6.00 Build 0)  -->
<svg version="1.1" xmlns="http://www.w3.org/2000/svg" xmlns:xlink="http://www.w3.org/1999/xlink" x="0px" y="0px"
	 viewBox="0 0 112.9 119.037" style="enable-background:new 0 0 112.9 119.037;" xml:space="preserve">
<g id="_x34_6-nightclub">
	<path style="fill:#59595C;" d="M11.935,98.775c-1.161-1.398-2.087-3.228-3.503-5.991c-1.416,2.763-2.342,4.594-3.503,5.991
		c-1.149,1.412-2.656,2.54-4.928,4.266c2.272,1.713,3.776,2.834,4.926,4.241c1.162,1.393,2.089,3.219,3.505,5.97
		c1.417-2.751,2.344-4.577,3.506-5.97c1.15-1.408,2.655-2.528,4.926-4.241C14.591,101.315,13.084,100.187,11.935,98.775z
		 M40.235,97.728c-3.713-0.574-7.403-1.294-11.057-2.165c-1.981-0.472-3.952-0.989-5.91-1.547
		c3.993,9.045,11.087,16.412,19.937,20.754c-0.007-0.029-0.015-0.059-0.022-0.088C41.853,109.099,40.871,103.433,40.235,97.728z
		 M74.146,55.373c-0.275-1.339-0.57-2.673-0.887-4.002c-1.265-5.31-2.88-10.541-4.791-15.658c-1.311-0.215-2.594-0.368-4.008-0.459
		V0h-5.514v35.247c-1.414,0.09-2.764,0.246-4.103,0.466c-1.91,5.117-3.522,10.348-4.787,15.658
		c-0.317,1.329-0.618,2.664-0.894,4.002c4.153-0.372,8.321-0.561,12.492-0.561C65.826,54.812,69.993,55,74.146,55.373z
		 M41.802,56.229c0.41-2.175,0.87-4.341,1.383-6.494c0.946-3.97,2.069-7.899,3.36-11.773C36.147,41.979,27.753,50.02,23.269,60.175
		c1.958-0.559,3.929-1.075,5.909-1.547C33.345,57.635,37.559,56.836,41.802,56.229z M81.502,56.229
		c4.242,0.607,8.456,1.405,12.623,2.398c1.982,0.472,3.953,0.989,5.913,1.548c-4.484-10.157-12.879-18.198-23.278-22.215
		c1.291,3.874,2.413,7.804,3.36,11.774C80.632,51.888,81.092,54.054,81.502,56.229z M39.614,90.485
		c-0.163-2.755-0.246-5.516-0.246-8.276c0-6.242,0.421-12.483,1.252-18.669c-3.292,0.527-6.565,1.175-9.807,1.948
		c-3.431,0.818-6.83,1.777-10.186,2.866c-0.598,2.82-0.915,5.744-0.915,8.743c0,2.998,0.317,5.921,0.915,8.741
		c3.357,1.089,6.755,2.048,10.186,2.866C33.725,89.397,36.662,89.989,39.614,90.485z M107.51,36.268
		c-1.271-1.529-2.283-3.531-3.833-6.554c-1.549,3.023-2.562,5.025-3.832,6.554c-1.257,1.545-2.906,2.778-5.391,4.666
		c2.485,1.874,4.131,3.1,5.389,4.639c1.271,1.524,2.285,3.521,3.835,6.531c1.55-3.009,2.564-5.007,3.835-6.531
		c1.258-1.539,2.904-2.765,5.389-4.639C110.415,39.046,108.767,37.812,107.51,36.268z M92.49,65.488
		c-3.242-0.773-6.515-1.421-9.807-1.948c0.831,6.185,1.252,12.427,1.252,18.669c0,2.76-0.083,5.521-0.246,8.276
		c2.953-0.496,5.889-1.087,8.8-1.782c3.433-0.818,6.832-1.777,10.19-2.867c0.598-2.819,0.915-5.742,0.915-8.74
		c0-2.998-0.317-5.922-0.915-8.741C99.321,67.265,95.922,66.306,92.49,65.488z M83.068,97.728
		c-0.636,5.706-1.618,11.372-2.949,16.954c-0.007,0.03-0.015,0.06-0.022,0.09c8.852-4.342,15.948-11.71,19.941-20.756
		c-1.96,0.559-3.932,1.076-5.914,1.548C90.471,96.434,86.781,97.153,83.068,97.728z M61.652,61.864c-4.6,0-9.199,0.241-13.773,0.717
		c-0.968,6.494-1.458,13.06-1.458,19.627c0,3.095,0.111,6.189,0.327,9.276c4.947,0.558,9.925,0.842,14.904,0.842
		c4.979,0,9.957-0.284,14.904-0.842c0.216-3.087,0.327-6.182,0.327-9.276c0-6.567-0.49-13.133-1.458-19.627
		C70.851,62.105,66.251,61.864,61.652,61.864z M47.446,98.655c0.603,4.841,1.468,9.648,2.598,14.391
		c0.375,1.571,0.781,3.135,1.213,4.691c3.324,0.848,6.808,1.3,10.396,1.3c3.587,0,7.069-0.451,10.393-1.299
		c0.432-1.557,0.839-3.12,1.213-4.692c1.131-4.743,1.996-9.55,2.598-14.391c-4.719,0.481-9.462,0.724-14.206,0.724
		C56.908,99.379,52.165,99.136,47.446,98.655z"/>
</g>
<g id="Capa_1">
</g>
</svg>
