<?xml version="1.0" encoding="iso-8859-1"?>
<!-- Generator: Adobe Illustrator 18.1.1, SVG Export Plug-In . SVG Version: 6.00 Build 0)  -->
<svg version="1.1" xmlns="http://www.w3.org/2000/svg" xmlns:xlink="http://www.w3.org/1999/xlink" x="0px" y="0px"
	 viewBox="0 0 118.457 108.293" style="enable-background:new 0 0 118.457 108.293;" xml:space="preserve">
<g id="_x31_3-restaurant">
	<g>
		<g>
			<path style="fill:#595858;" d="M36.33,78.49l-4.379-5.702L5.923,97.745c-2.2,2.074-2.253,5.511-0.145,7.652l1.081,1.105
				c2.103,2.141,5.604,2.197,7.794,0.132l26.044-24.963C38.987,80.991,37.449,79.912,36.33,78.49z M62.832,53.362
				c8.24,8.367,20.746,9.669,27.894,2.899l27.502-26.047l-5.088-5.158L90.167,46.824l-0.038-0.032
				c-0.032,0.032-2.501,2.657-5.196,2.694c-1.151,0.014-2.162-0.446-3.244-1.527c-0.021-0.008-0.161-0.121-0.344-0.307
				c-1.097-1.11-2.372-3.55,1.344-7.372l23.414-22.179l-5.825-5.922L79.006,32.339l-0.021-0.091l-1.383,1.372
				c-2.039,1.993-3.91,2.993-5.578,2.974c-1.302-0.008-2.216-0.659-2.748-1.197c-0.177-0.202-0.301-0.352-0.43-0.524
				c-2.528-2.566-0.952-5.387,0.747-7.259L93.448,5.023l-5.089-5.169L60.874,25.906c-3.485,3.308-5.191,7.993-4.787,13.224
				C56.48,44.288,58.884,49.339,62.832,53.362z M10.49,7.586C8.607,5.657,5.736,5.574,3.81,7.384C3.595,7.599,3.39,7.844,3.191,8.11
				l-2.178,2.975c-1.71,2.329-1.646,5.954,0.151,8.232l41.519,54.06c1.813,2.289,5.406,3.039,7.998,1.689l2.598-1.361
				c1.77-0.917,4.427-0.497,5.809,0.917l31.337,31.869c2.109,2.152,5.605,2.208,7.794,0.143l1.13-1.076
				c2.183-2.06,2.237-5.502,0.134-7.641L10.49,7.586z"/>
		</g>
	</g>
</g>
<g id="Capa_1">
</g>
</svg>
