<?xml version="1.0" encoding="iso-8859-1"?>
<!-- Generator: Adobe Illustrator 18.1.1, SVG Export Plug-In . SVG Version: 6.00 Build 0)  -->
<svg version="1.1" xmlns="http://www.w3.org/2000/svg" xmlns:xlink="http://www.w3.org/1999/xlink" x="0px" y="0px"
	 viewBox="0 0 119.189 114.151" style="enable-background:new 0 0 119.189 114.151;" xml:space="preserve">
<g id="_x37_4-safety-box">
	<path style="fill:#59595C;" d="M15.11,70.799V46.181H5.039v24.618H15.11z M20.151,86.663V77.85c0-1.638-1.954-3.021-4.265-3.021
		H4.265C1.954,74.829,0,76.212,0,77.85v8.814c0,1.638,1.954,3.022,4.265,3.022h11.621C18.197,89.685,20.151,88.301,20.151,86.663z
		 M4.265,42.153h11.621c2.312,0,4.265-1.384,4.265-3.022v-8.813c0-1.638-1.954-3.021-4.265-3.021H4.265
		C1.954,27.297,0,28.68,0,30.318v8.813C0,40.769,1.954,42.153,4.265,42.153z M100.214,0H24.014C13.551,0,5.039,8.513,5.039,18.976
		v4.292H15.11v-4.292c0-4.91,3.994-8.903,8.903-8.903h76.201c4.909,0,8.902,3.993,8.902,8.903v76.201
		c0,4.909-3.993,8.902-8.902,8.902H24.014c-4.909,0-8.903-3.993-8.903-8.902v-1.463H5.039v1.463
		c0,10.463,8.512,18.974,18.975,18.974h76.201c10.463,0,18.975-8.512,18.975-18.974V18.976C119.189,8.513,110.677,0,100.214,0z
		 M103.743,68.238V48.856c0-2.033-1.647-3.681-3.68-3.681c-2.034,0-3.681,1.648-3.681,3.681v19.383c0,2.032,1.647,3.68,3.681,3.68
		C102.096,71.918,103.743,70.271,103.743,68.238z M88.635,56.457c0-15.708-12.779-28.486-28.486-28.486
		c-15.707,0-28.485,12.779-28.485,28.486c0,15.707,12.778,28.485,28.485,28.485C75.856,84.942,88.635,72.164,88.635,56.457z
		 M61.156,79.881l0.001-6.545c4.342-0.208,8.246-2.067,11.089-4.982l4.484,4.669C72.704,77.052,67.224,79.623,61.156,79.881z
		 M78.091,71.533l-4.53-4.717c1.996-2.618,3.227-5.841,3.374-9.352l6.637,0.001C83.346,62.809,81.322,67.694,78.091,71.533z
		 M83.573,55.45l-6.668,0c-0.233-2.99-1.248-5.759-2.855-8.095l4.852-4.959C81.661,46.065,83.365,50.567,83.573,55.45z
		 M61.157,33.033c6.527,0.278,12.37,3.234,16.457,7.798l-4.823,4.931c-2.878-3.253-7.003-5.36-11.634-5.582V33.033z M59.142,33.033
		V40.2c-3.96,0.286-7.53,1.952-10.237,4.529l-5.004-5.156C47.894,35.73,53.237,33.284,59.142,33.033z M42.51,41.032l5.011,5.163
		c-2.106,2.555-3.449,5.755-3.722,9.255l-7.073,0C36.96,49.942,39.104,44.923,42.51,41.032z M36.726,57.464l7.043,0
		c0.158,3.763,1.549,7.205,3.805,9.915l-5.162,4.388C39.063,67.893,36.957,62.919,36.726,57.464z M59.142,79.881
		c-5.958-0.253-11.345-2.74-15.348-6.643l5.171-4.397c2.7,2.545,6.246,4.191,10.177,4.475L59.142,79.881z M58.956,50.488v-4.833
		c0-0.89,0.721-1.611,1.612-1.611c0.888,0,1.608,0.721,1.608,1.611v4.833c0,0.888-0.72,1.61-1.608,1.61
		C59.678,52.098,58.956,51.376,58.956,50.488z"/>
</g>
<g id="Capa_1">
</g>
</svg>
