<?xml version="1.0" encoding="iso-8859-1"?>
<!-- Generator: Adobe Illustrator 18.1.1, SVG Export Plug-In . SVG Version: 6.00 Build 0)  -->
<svg version="1.1" xmlns="http://www.w3.org/2000/svg" xmlns:xlink="http://www.w3.org/1999/xlink" x="0px" y="0px"
	 viewBox="0 0 118.67 81.124" style="enable-background:new 0 0 118.67 81.124;" xml:space="preserve">
<g id="_x37_7-sheets">
	<path style="fill:#59595C;" d="M118.585,28.36c0-6.788,0-12.33,0-12.33s-13.505,1.866-32.198,35.456h-55.34
		c-1.022-1.482-2.691-4.47-2.691-8.305c0-4.416,1.569-7.084,2.518-8.305h36.904c8.174,7.663,14.787,13.99,14.787,13.99
		s8.469-16.585,19.915-26.428c11.182-9.614,16.106-11.325,16.106-11.325s0-5.74-4.137-5.904c-4.812-0.191-85.64-5.182-85.64-5.182
		S17.263-0.695,15.122,5.267l-2.213,0.001C12.78,5.287,0,7.182,0,20.505c0,5.8,2.329,9.37,5.09,11.507
		C2.378,34.274,0,37.885,0,43.628c0,5.8,2.329,9.37,5.09,11.507C2.378,57.397,0,61.009,0,66.752c0,11.46,9.074,14.257,12.651,14.372
		h106.02V58v-6.514V28.36H118.585z M13.573,58h9.841c-0.888,2.137-1.574,4.888-1.574,8.307c0,3.483,0.754,6.227,1.642,8.309
		l-10.621,0.001c-1.061-0.072-6.344-0.789-6.344-7.865C6.517,59.855,12.053,58.297,13.573,58z M13.353,34.877h10.061
		c-0.888,2.137-1.574,4.887-1.574,8.305c0,3.278,0.809,6.077,1.787,8.305h-8.122l-0.423,0.005h-2.255
		c-1.052-0.065-6.311-0.743-6.311-7.862C6.517,36.435,12.541,35.049,13.353,34.877z M97.602,63.686c0,0,7.052,7.154,14.239,1.916
		c0.121-0.088,0.201-0.169,0.318-0.257v9.262l-81.117,0.008c-1.03-1.482-2.685-4.447-2.685-8.308c0-4.418,1.569-7.087,2.518-8.307
		h61.128L97.602,63.686z M30.872,11.755h11.428c4.645,3.898,11.613,10.228,18.494,16.607l-29.744,0.003
		c-1.022-1.481-2.693-4.471-2.693-8.308C28.356,15.64,29.928,12.97,30.872,11.755z M23.413,11.755
		c-0.888,2.137-1.573,4.885-1.573,8.302c0,3.28,0.81,6.08,1.789,8.308l-10.787,0.001c-1.057-0.069-6.325-0.77-6.325-7.862
		c0-6.928,5.532-8.46,7.052-8.749H23.413z"/>
</g>
<g id="Capa_1">
</g>
</svg>
