<?xml version="1.0" encoding="utf-8"?>
<!-- Generator: Adobe Illustrator 18.1.1, SVG Export Plug-In . SVG Version: 6.00 Build 0)  -->
<svg version="1.1" id="Layer_1" xmlns="http://www.w3.org/2000/svg" xmlns:xlink="http://www.w3.org/1999/xlink" x="0px" y="0px"
	 viewBox="0 0 538.6 538.6" enable-background="new 0 0 538.6 538.6" xml:space="preserve">
<g>
	<path d="M349.8,262.4c-9.1,21.2-21.5,39.6-37.1,55.2s-33.9,28-54.9,37.1c-21,9.1-43.5,13.7-67.6,13.7c-24.1,0-46.6-4.6-67.6-13.7
		c-21-9.1-39.3-21.5-54.9-37.1s-28-34-37.1-55.2c-9.1-21.2-13.7-43.6-13.7-67.4c0-24.1,4.6-46.6,13.7-67.6
		c9.1-21,21.5-39.3,37.1-54.9s33.9-28,54.9-37.1c21-9.1,43.5-13.7,67.6-13.7c24.1,0,46.6,4.6,67.6,13.7c21,9.1,39.3,21.5,54.9,37.1
		s28,33.9,37.1,54.9c9.1,21,13.7,43.5,13.7,67.6C363.5,218.8,358.9,241.3,349.8,262.4z M190.1,327.9c18.2,0,35.4-3.5,51.5-10.5
		c16.1-7,30.2-16.5,42.2-28.6c12-12,21.6-26.1,28.6-42.2c7-16.1,10.5-33.3,10.5-51.5c0-18.6-3.5-35.9-10.5-52
		c-7-16.1-16.5-30.1-28.6-42c-12-11.9-26.1-21.3-42.2-28.3c-16.1-7-33.3-10.5-51.5-10.5c-18.2,0-35.4,3.5-51.5,10.5
		c-16.1,7-30.2,16.4-42.2,28.3c-12,11.9-21.6,25.9-28.6,42c-7,16.1-10.5,33.4-10.5,52c0,18.2,3.5,35.4,10.5,51.5
		c7,16.1,16.5,30.2,28.6,42.2c12,12,26.1,21.6,42.2,28.6C154.7,324.4,171.9,327.9,190.1,327.9z M505.6,439.2
		c7.5,7.5,11.2,16.6,11.2,27.3s-3.7,19.7-11.2,26.9l-11.2,11.2c-7.5,7.5-16.5,11.2-27.1,11.2c-10.6,0-19.6-3.7-27.1-11.2
		L303.9,367.9c13-8.5,24.9-18.3,35.6-29.5s20-23.5,27.8-36.9L505.6,439.2z"/>
</g>
</svg>
